<!-- Generated by IcoMoon.io -->
<svg version="1.1" xmlns="http://www.w3.org/2000/svg" width="32" height="32" viewBox="0 0 32 32">
<title>image2vector</title>
<path fill="#e019fb" d="M27.464 18.038c0.031 0.008 0.081 0.008 0.112 0s0.006-0.015-0.056-0.015-0.087 0.007-0.056 0.015zM28.864 18.368c0 0.018 0.013 0.032 0.029 0.032s0.056 0.008 0.088 0.019c0.054 0.017 0.053 0.014-0.003-0.032-0.071-0.058-0.114-0.065-0.114-0.019zM28.519 19.017c-0.41 0.411-0.506 0.522-0.452 0.526 0.080 0.006 0.113 0.031 0.082 0.062-0.012 0.012-0.038 0.006-0.057-0.014-0.023-0.023-0.062-0.026-0.108-0.008-0.040 0.015-0.081 0.019-0.092 0.008s-0.019-0.003-0.019 0.017c0 0.024 0.034 0.030 0.096 0.017 0.077-0.015 0.096-0.008 0.096 0.035s0.019 0.050 0.1 0.033c0.073-0.016 0.094-0.012 0.077 0.016-0.014 0.023 0.003 0.044 0.044 0.055 0.037 0.010 0.067 0.030 0.067 0.046s0.026 0.028 0.057 0.028c0.031 0 0.077 0.028 0.102 0.062s0.057 0.055 0.071 0.046 0.026-0 0.026 0.020c0 0.020 0.011 0.031 0.024 0.025s0.070 0.036 0.125 0.094c0.056 0.058 0.093 0.105 0.083 0.105s0.009 0.025 0.043 0.056c0.111 0.101 0.333 0.413 0.333 0.467 0 0.029 0.014 0.053 0.032 0.053s0.032 0.028 0.032 0.062c0 0.034 0.014 0.071 0.032 0.082s0.032 0.055 0.032 0.098c0 0.043 0.014 0.078 0.032 0.078s0.032 0.062 0.032 0.138c0 0.076 0.018 0.157 0.040 0.181 0.032 0.035 0.031 0.038-0.008 0.018s-0.040-0.017-0.008 0.018c0.051 0.055 0.059 6.11 0.008 6.11-0.018 0-0.032 0.071-0.032 0.158s-0.014 0.167-0.032 0.178c-0.018 0.011-0.032 0.054-0.032 0.096s-0.014 0.085-0.032 0.096c-0.018 0.011-0.032 0.048-0.032 0.082s-0.014 0.062-0.032 0.062c-0.018 0-0.032 0.029-0.032 0.064s-0.014 0.064-0.032 0.064c-0.018 0-0.032 0.024-0.032 0.052s-0.025 0.076-0.056 0.104c-0.031 0.028-0.091 0.102-0.132 0.164s-0.139 0.162-0.216 0.224c-0.077 0.062-0.175 0.144-0.218 0.184s-0.1 0.072-0.127 0.072-0.049 0.014-0.049 0.032c0 0.018-0.029 0.032-0.064 0.032s-0.064 0.014-0.064 0.032c0 0.018-0.029 0.032-0.064 0.032s-0.064 0.014-0.064 0.032c0 0.018-0.042 0.032-0.094 0.032s-0.103 0.014-0.114 0.032c-0.011 0.018-0.091 0.032-0.178 0.032s-0.158 0.014-0.158 0.032c0 0.051-6.055 0.043-6.11-0.008-0.035-0.032-0.038-0.031-0.018 0.008s0.017 0.040-0.018 0.008c-0.024-0.022-0.105-0.040-0.181-0.040s-0.138-0.014-0.138-0.032c0-0.018-0.035-0.032-0.078-0.032s-0.087-0.014-0.098-0.032c-0.011-0.018-0.048-0.032-0.082-0.032s-0.062-0.014-0.062-0.032c0-0.018-0.025-0.032-0.056-0.032s-0.128-0.058-0.216-0.128-0.177-0.127-0.198-0.128c-0.021-0-0.047-0.030-0.059-0.067s-0.028-0.060-0.036-0.051c-0.026 0.026-0.271-0.234-0.251-0.267 0.011-0.017-0.003-0.032-0.030-0.032s-0.048-0.011-0.046-0.024c0.008-0.055-0.045-0.166-0.071-0.15-0.016 0.010-0.028-0.010-0.028-0.045 0-0.059-0.149-0.188-0.2-0.173-0.023 0.007-0.038-0.070-0.026-0.137 0.003-0.018-0.229 0.202-0.517 0.488s-0.547 0.52-0.578 0.52c-0.066 0-0.068 0.011-0.016 0.103 0.051 0.090 0.111 0.155 0.143 0.155 0.014 0 0.020 0.030 0.014 0.066-0.007 0.041 0.002 0.058 0.024 0.045 0.019-0.012 0.035-0 0.035 0.026s0.018 0.054 0.040 0.063c0.031 0.013 0.031 0.017-0.001 0.019-0.034 0.002-0.034 0.011 0 0.047 0.023 0.025 0.051 0.039 0.062 0.032s0.040 0.030 0.064 0.083c0.024 0.054 0.067 0.096 0.099 0.096s0.056 0.022 0.056 0.049c0 0.027 0.022 0.057 0.048 0.067s0.040 0.032 0.030 0.048c-0.010 0.016-0.006 0.027 0.008 0.025 0.068-0.012 0.106 0.007 0.106 0.053 0 0.055 0.074 0.142 0.121 0.142 0.016 0 0.055 0.029 0.087 0.064s0.078 0.064 0.103 0.064c0.025 0 0.038 0.011 0.029 0.025s0.027 0.044 0.078 0.067c0.052 0.023 0.085 0.057 0.073 0.076s-0.006 0.025 0.013 0.013c0.019-0.012 0.056 0 0.083 0.027s0.071 0.048 0.099 0.048c0.028 0 0.050 0.011 0.051 0.024 0 0.029 0.155 0.104 0.214 0.104 0.023 0 0.042 0.014 0.042 0.032s0.029 0.032 0.064 0.032c0.035 0 0.064 0.014 0.064 0.032s0.043 0.032 0.096 0.032c0.053 0 0.096 0.014 0.096 0.032s0.043 0.032 0.096 0.032c0.053 0 0.096 0.013 0.096 0.029s0.076 0.039 0.168 0.052c0.276 0.038 7.192 0.053 7.192 0.015 0-0.018 0.064-0.032 0.142-0.032s0.151-0.014 0.162-0.032c0.011-0.018 0.054-0.032 0.096-0.032s0.085-0.014 0.096-0.032c0.011-0.018 0.055-0.032 0.098-0.032s0.078-0.014 0.078-0.032c0-0.018 0.022-0.032 0.048-0.032s0.073-0.013 0.104-0.028c0.031-0.016 0.124-0.061 0.208-0.101s0.152-0.085 0.152-0.1c0-0.015 0.029-0.027 0.064-0.027s0.064-0.012 0.064-0.027c0-0.015 0.039-0.047 0.087-0.072 0.215-0.112 0.822-0.72 0.934-0.934 0.025-0.048 0.057-0.087 0.072-0.087s0.027-0.029 0.027-0.064 0.013-0.064 0.028-0.064 0.053-0.054 0.084-0.12 0.075-0.162 0.1-0.213c0.024-0.051 0.044-0.112 0.044-0.136s0.014-0.043 0.032-0.043 0.032-0.035 0.032-0.078c0-0.043 0.014-0.087 0.032-0.098s0.032-0.054 0.032-0.096c0-0.042 0.014-0.085 0.032-0.096s0.032-0.084 0.032-0.162c0-0.078 0.015-0.142 0.032-0.142 0.037 0 0.022-6.916-0.015-7.192-0.013-0.092-0.036-0.16-0.052-0.15s-0.029-0.033-0.029-0.096-0.014-0.114-0.032-0.114c-0.018 0-0.032-0.029-0.032-0.064s-0.013-0.089-0.028-0.12c-0.016-0.031-0.062-0.128-0.104-0.216s-0.086-0.165-0.1-0.171c-0.013-0.006-0.024-0.037-0.024-0.069s-0.013-0.063-0.030-0.069c-0.016-0.006-0.034-0.030-0.040-0.055s-0.039-0.078-0.074-0.118c-0.146-0.169-0.24-0.296-0.24-0.322 0-0.015-0.039-0.057-0.087-0.092s-0.109-0.086-0.136-0.113c-0.027-0.027-0.078-0.088-0.113-0.136s-0.076-0.087-0.091-0.087c-0.015 0-0.068-0.043-0.117-0.096-0.086-0.092-0.153-0.13-0.112-0.064 0.029 0.047-0.014 0.039-0.065-0.012-0.024-0.024-0.035-0.053-0.024-0.064s-0.005-0.020-0.035-0.020c-0.034 0-0.047-0.016-0.035-0.040 0.011-0.022-0.004-0.011-0.034 0.024-0.043 0.050-0.051 0.052-0.036 0.010 0.029-0.083-0.104-0.114-0.164-0.038-0.041 0.052-0.044 0.053-0.027 0.004 0.038-0.11-0.035-0.049-0.548 0.465zM27.537 19.554c0.019 0.030 0.143 0.026 0.143-0.005 0-0.012-0.036-0.021-0.079-0.021s-0.072 0.012-0.063 0.026zM18.023 27.52c0 0.062 0.007 0.087 0.015 0.056s0.008-0.081 0-0.112c-0.008-0.031-0.015-0.006-0.015 0.056zM19.534 27.876c-0.017 0.027-0.008 0.033 0.029 0.019 0.062-0.024 0.063-0.020 0.024 0.084-0.024 0.064-0.016 0.090 0.048 0.146 0.076 0.066 0.078 0.066 0.078 0.004 0-0.036-0.021-0.064-0.050-0.064-0.037 0-0.047-0.026-0.040-0.101 0.010-0.103-0.045-0.158-0.088-0.087z"></path>
<path fill="#6782ec" d="M22.24 1.056c0.035 0.023 0.010 0.032-0.096 0.036-0.134 0.004-0.137 0.006-0.038 0.024l0.106 0.020-0.796 0.792c-0.438 0.436-0.789 0.792-0.78 0.792s-0.010 0.019-0.042 0.043c-0.034 0.025-0.046 0.051-0.027 0.063s0.061-0.008 0.097-0.041 0.076-0.051 0.090-0.039c0.014 0.012 0.015-0.005 0.003-0.038-0.016-0.045-0.009-0.055 0.027-0.041 0.027 0.010 0.048 0.006 0.048-0.010s-0.018-0.036-0.040-0.044c-0.031-0.012-0.030-0.017 0.002-0.019 0.023-0.001 0.072 0.014 0.109 0.033 0.056 0.030 0.064 0.028 0.047-0.016-0.026-0.068 0.008-0.066 0.062 0.004 0.030 0.039 0.050 0.045 0.068 0.020 0.014-0.020 0.082-0.047 0.153-0.061 0.204-0.039 6.32-0.055 6.32-0.016 0 0.018 0.077 0.033 0.176 0.033 0.097 0 0.176 0.014 0.176 0.032s0.043 0.032 0.096 0.032c0.053 0 0.096 0.014 0.096 0.032s0.029 0.032 0.064 0.032c0.035 0 0.064 0.014 0.064 0.032s0.029 0.032 0.064 0.032c0.035 0 0.064 0.014 0.064 0.032s0.029 0.032 0.064 0.032c0.035 0 0.064 0.011 0.064 0.025s0.034 0.046 0.077 0.072c0.14 0.087 0.531 0.473 0.531 0.525 0 0.028 0.014 0.051 0.032 0.051s0.032 0.029 0.032 0.064c0 0.035 0.012 0.064 0.026 0.064 0.045 0 0.166 0.258 0.166 0.355 0 0.051 0.014 0.093 0.032 0.093s0.032 0.044 0.032 0.098c0 0.054 0.016 0.128 0.035 0.164 0.026 0.048 0.026 0.060 0 0.044-0.019-0.012-0.035-0.008-0.035 0.009s0.018 0.037 0.039 0.044c0.025 0.008 0.037 0.072 0.033 0.179-0.009 0.236-0.002 0.232 0.662-0.426 0.328-0.326 0.622-0.592 0.651-0.592 0.062 0 0.073-0.096 0.018-0.151-0.020-0.020-0.053-0.029-0.074-0.021-0.027 0.010-0.035-0.024-0.028-0.113 0.006-0.070-0.004-0.136-0.022-0.147s-0.032-0.055-0.032-0.098-0.012-0.078-0.026-0.078c-0.014 0-0.046-0.050-0.069-0.111s-0.055-0.103-0.070-0.094c-0.015 0.009-0.027-0.006-0.027-0.033s-0.014-0.050-0.032-0.050c-0.018 0-0.032-0.025-0.032-0.056s-0.029-0.074-0.064-0.096c-0.035-0.022-0.064-0.063-0.064-0.092s-0.047-0.094-0.104-0.147c-0.057-0.052-0.082-0.084-0.056-0.071s-0.048-0.072-0.165-0.189c-0.117-0.117-0.223-0.213-0.235-0.213s-0.060-0.040-0.107-0.088c-0.047-0.048-0.124-0.108-0.173-0.133s-0.088-0.057-0.088-0.072c0-0.015-0.022-0.027-0.049-0.027s-0.080-0.029-0.118-0.064c-0.038-0.035-0.087-0.064-0.11-0.064s-0.092-0.029-0.155-0.064c-0.063-0.035-0.135-0.064-0.161-0.064s-0.047-0.014-0.047-0.032c0-0.018-0.034-0.032-0.075-0.032s-0.085-0.010-0.098-0.023c-0.035-0.035-0.312-0.102-0.43-0.104-0.062-0.001-0.098-0.015-0.086-0.033 0.013-0.021-0.962-0.032-2.902-0.032-1.898 0-2.905 0.011-2.874 0.032zM20.462 2.845c0.010 0.016 0 0.037-0.022 0.045s-0.008 0.017 0.031 0.019c0.050 0.002 0.066-0.011 0.053-0.045-0.010-0.026-0.032-0.048-0.049-0.048s-0.022 0.013-0.012 0.029zM20.246 2.997c0.015 0.039 0.009 0.046-0.022 0.027-0.027-0.017-0.035-0.014-0.021 0.008 0.012 0.019 0.049 0.026 0.084 0.018 0.054-0.014 0.056-0.023 0.018-0.061-0.060-0.060-0.084-0.056-0.059 0.009zM19.994 3.229c-0.048 0.056-0.043 0.131 0.009 0.131 0.016 0 0.029-0.021 0.029-0.046s0.030-0.055 0.066-0.067c0.037-0.012 0.058-0.030 0.047-0.040-0.040-0.040-0.107-0.030-0.152 0.022zM19.846 3.44c-0.020 0.044-0.025 0.080-0.010 0.080 0.042 0 0.134-0.115 0.111-0.139-0.038-0.038-0.064-0.023-0.101 0.059zM19.712 3.612c0 0.022-0.014 0.031-0.032 0.021s-0.024 0.002-0.013 0.030c0.010 0.027 0.006 0.050-0.010 0.050-0.031 0-1.494 1.457-1.503 1.497-0.003 0.013-0.014 0.063-0.025 0.111-0.050 0.225-0.081 0.050-0.090-0.496-0.005-0.321-0.012 0.899-0.015 2.712-0.004 2.843 0.002 3.327 0.044 3.52 0.027 0.123 0.056 0.278 0.065 0.344s0.029 0.12 0.045 0.12 0.029 0.035 0.029 0.078c0 0.043 0.014 0.087 0.032 0.098s0.032 0.048 0.032 0.082c0 0.034 0.014 0.062 0.032 0.062s0.032 0.029 0.032 0.064c0 0.035 0.012 0.064 0.026 0.064s0.046 0.051 0.070 0.113c0.024 0.062 0.070 0.136 0.102 0.165s0.058 0.079 0.058 0.111 0.014 0.059 0.032 0.059c0.018 0 0.032 0.016 0.032 0.037s0.040 0.076 0.088 0.123c0.048 0.048 0.104 0.114 0.123 0.147s0.066 0.075 0.104 0.092 0.069 0.050 0.069 0.073c0 0.054 0.144 0.199 0.199 0.199 0.023 0 0.075 0.043 0.117 0.096s0.095 0.096 0.118 0.096c0.023 0 0.065 0.032 0.092 0.071s0.050 0.060 0.050 0.046c0-0.014 0.023-0.003 0.050 0.025s0.071 0.050 0.096 0.050c0.025 0 0.046 0.014 0.046 0.032s0.022 0.032 0.048 0.032c0.026 0 0.048 0.014 0.048 0.032s0.029 0.032 0.064 0.032c0.035 0 0.064 0.013 0.064 0.029s0.028 0.022 0.061 0.013c0.041-0.011 0.066 0.003 0.076 0.043 0.014 0.056 0.015 0.056 0.019 0.001 0.003-0.048 0.017-0.043 0.084 0.032 0.064 0.071 0.076 0.077 0.061 0.026-0.017-0.060-0.016-0.060 0.027-0.008 0.025 0.030 0.055 0.046 0.066 0.035s0.029 0.004 0.040 0.032c0.022 0.058 0.109 0.073 0.109 0.019 0-0.019-0.013-0.026-0.030-0.015s-0.039 0.004-0.049-0.013 0.015-0.040 0.057-0.051c0.042-0.011 0.334-0.277 0.647-0.593 0.449-0.452 0.588-0.574 0.654-0.574 0.046 0 0.097-0.013 0.114-0.030s0.088-0.036 0.158-0.043-0.042-0.014-0.249-0.015c-0.207-0.001-0.394-0.016-0.416-0.034-0.035-0.029-0.167-0.044-0.367-0.040-0.040 0.001-0.072-0.013-0.072-0.030s-0.029-0.032-0.064-0.032-0.064-0.014-0.064-0.032-0.037-0.032-0.082-0.032c-0.046 0-0.073-0.014-0.062-0.032s-0.010-0.032-0.046-0.032-0.066-0.014-0.066-0.032c0-0.018-0.030-0.032-0.066-0.032s-0.059-0.011-0.051-0.024c0.008-0.013-0.006-0.043-0.030-0.065-0.036-0.034-0.045-0.034-0.046 0-0.001 0.023-0.022 0.005-0.047-0.039s-0.046-0.067-0.047-0.050c-0.002 0.039-0.385-0.357-0.385-0.398 0-0.018-0.043-0.077-0.096-0.132s-0.096-0.127-0.096-0.16c0-0.033-0.014-0.059-0.032-0.059s-0.032-0.035-0.032-0.078c0-0.043-0.014-0.087-0.032-0.098s-0.032-0.062-0.032-0.114c0-0.052-0.014-0.094-0.032-0.094s-0.032-0.064-0.032-0.142c0-0.078-0.014-0.151-0.032-0.162-0.042-0.026-0.044-6.15-0.003-6.165 0.016-0.006 0.033-0.068 0.038-0.139s0.020-0.143 0.034-0.162c0.014-0.019 0.019-0.066 0.012-0.104-0.009-0.046 0.003-0.070 0.033-0.070 0.025 0 0.046-0.014 0.046-0.032s-0.012-0.032-0.027-0.032c-0.015 0-0.027-0.020-0.027-0.044s0.022-0.042 0.049-0.040c0.060 0.004 0.088-0.102 0.039-0.15-0.025-0.025-0.035-0.024-0.035 0.005zM13.952 8.896c0 0.604-0.007 0.704-0.048 0.704-0.026 0-0.048-0.025-0.048-0.056 0-0.033-0.266 0.21-0.665 0.609-0.366 0.366-0.677 0.654-0.691 0.64s-0.020-0.005-0.014 0.019c0.006 0.024-0.006 0.050-0.027 0.058-0.024 0.009-0.031-0.010-0.020-0.052 0.009-0.036 0.030-0.066 0.046-0.066s0.028-0.029 0.028-0.064-0.021-0.064-0.046-0.064c-0.031 0-0.045 0.033-0.043 0.102 0.002 0.056-0.014 0.108-0.034 0.115s-0.037 0.062-0.037 0.124c0 0.080-0.011 0.105-0.040 0.088-0.022-0.013-0.011 0.010 0.024 0.052 0.046 0.054 0.051 0.070 0.015 0.057-0.031-0.011-0.062 0.010-0.084 0.056-0.029 0.062-0.027 0.071 0.017 0.058 0.038-0.012 0.036-0.003-0.010 0.035-0.034 0.028-0.074 0.051-0.088 0.051s-0.026 0.028-0.026 0.062-0.029 0.071-0.064 0.082c-0.035 0.011-0.064 0.035-0.064 0.052s0.017 0.021 0.037 0.009c0.023-0.014 0.028-0.009 0.014 0.014-0.013 0.020-0.044 0.037-0.070 0.037s-0.044 0.018-0.039 0.040c0.005 0.022-0.059 0.11-0.143 0.195s-0.151 0.145-0.151 0.132c0-0.012-0.030 0.012-0.066 0.053s-0.057 0.058-0.046 0.036 0.005-0.040-0.014-0.040c-0.031 0-0.047 0.044-0.038 0.104 0.002 0.013-0.032 0.024-0.076 0.024s-0.080 0.014-0.080 0.032c0 0.018-0.023 0.032-0.050 0.032-0.056 0-0.122 0.056-0.15 0.129-0.010 0.026-0.020 0.032-0.021 0.014-0.004-0.053-0.227-0.015-0.227 0.039 0 0.026 0.012 0.039 0.027 0.030s0.027 0.004 0.027 0.030c0 0.035-0.010 0.037-0.043 0.011s-0.043-0.025-0.043 0.004c0 0.024-0.021 0.031-0.055 0.018-0.030-0.012-0.044-0.010-0.031 0.003 0.028 0.028-1.287 1.355-1.343 1.355-0.021 0-0.044 0.018-0.051 0.040-0.010 0.030-0.275 0.044-1.115 0.058-0.995 0.016-0.923 0.018 0.746 0.022 1.582 0.004 1.854-0.002 1.894-0.042 0.026-0.026 0.055-0.034 0.065-0.017 0.011 0.018 0.057 0.019 0.114 0.002 0.053-0.015 0.096-0.022 0.096-0.015s0.054-0.006 0.12-0.029c0.066-0.023 0.138-0.036 0.16-0.028s0.040-0.002 0.040-0.021c0-0.019 0.028-0.035 0.062-0.035s0.071-0.014 0.082-0.032c0.011-0.018 0.055-0.032 0.098-0.032s0.078-0.014 0.078-0.032c0-0.018 0.029-0.032 0.064-0.032s0.064-0.011 0.064-0.024c0-0.029 0.155-0.104 0.214-0.104 0.023 0 0.042-0.014 0.042-0.032s0.022-0.032 0.050-0.032c0.027 0 0.041-0.014 0.030-0.032s0.011-0.032 0.048-0.032c0.037 0 0.059-0.014 0.048-0.032s0.004-0.032 0.032-0.032c0.029 0 0.122-0.072 0.208-0.16s0.172-0.16 0.191-0.16c0.045 0 0.173-0.127 0.201-0.2 0.012-0.031 0.044-0.056 0.072-0.056s0.042-0.014 0.032-0.030c-0.010-0.017 0.032-0.081 0.094-0.143s0.113-0.136 0.113-0.164c0-0.028 0.014-0.042 0.032-0.031s0.032-0.003 0.032-0.030c0-0.027 0.011-0.050 0.025-0.050s0.059-0.079 0.101-0.176c0.042-0.097 0.088-0.176 0.103-0.176s0.027-0.029 0.027-0.064c0-0.035 0.014-0.064 0.032-0.064s0.032-0.035 0.032-0.078c0-0.043 0.014-0.087 0.032-0.098s0.032-0.048 0.032-0.082c0-0.034 0.016-0.062 0.035-0.062s0.028-0.018 0.021-0.040-0-0.076 0.017-0.12c0.017-0.044 0.035-0.138 0.040-0.208s0.024-0.164 0.041-0.208c0.033-0.082 0.056-2.752 0.023-2.752-0.009 0-0.017 0.317-0.017 0.704zM12.512 10.958c0 0.031-0.11-0.009-0.122-0.044-0.010-0.031 0.002-0.032 0.054-0.004 0.037 0.020 0.068 0.042 0.068 0.048zM21.898 13.976c0.384 0.005 1.003 0.005 1.376-0s0.059-0.009-0.698-0.009-1.062 0.004-0.678 0.009zM4.712 18.047c0.26 0.012 0.482 0.031 0.493 0.043s-0.013 0.022-0.056 0.024c-0.063 0.002-0.067 0.006-0.021 0.025s-0.089 0.167-0.68 0.756c-0.405 0.404-0.736 0.744-0.736 0.758s-0.027 0.019-0.060 0.012c-0.046-0.009-0.057 0.003-0.044 0.050 0.009 0.034 0.037 0.061 0.062 0.061s0.040-0.011 0.032-0.024 0.015-0.053 0.051-0.088c0.055-0.055 0.062-0.056 0.045-0.008-0.015 0.041-0.003 0.056 0.043 0.056 0.035 0 0.063-0.020 0.063-0.045 0-0.029 0.028-0.042 0.080-0.036 0.044 0.005 0.080-0.001 0.080-0.014s0.083-0.025 0.183-0.029c0.101-0.003 0.197-0.020 0.214-0.037 0.043-0.043 6.066-0.042 6.066 0.001 0 0.018 0.072 0.032 0.16 0.032s0.16 0.014 0.16 0.032c0 0.018 0.042 0.032 0.094 0.032s0.103 0.014 0.114 0.032c0.011 0.018 0.055 0.032 0.098 0.032s0.078 0.014 0.078 0.032c0 0.018 0.029 0.032 0.064 0.032s0.064 0.014 0.064 0.032c0 0.018 0.018 0.032 0.041 0.032s0.062 0.029 0.087 0.064 0.065 0.064 0.087 0.064 0.041 0.014 0.041 0.032 0.012 0.028 0.027 0.024c0.015-0.004 0.104 0.068 0.197 0.16s0.157 0.168 0.141 0.169 0.007 0.022 0.051 0.047c0.044 0.025 0.061 0.046 0.039 0.047-0.034 0.001-0.034 0.009 0 0.046 0.023 0.025 0.047 0.039 0.054 0.032 0.018-0.017 0.099 0.145 0.099 0.198 0 0.024 0.014 0.044 0.032 0.044s0.032 0.029 0.032 0.064c0 0.035 0.014 0.064 0.032 0.064s0.032 0.058 0.032 0.128c0 0.070 0.014 0.128 0.032 0.128s0.032 0.068 0.032 0.152c0 0.11 0.009 0.139 0.032 0.104s0.031-0.015 0.032 0.080 0.009 0.115 0.032 0.080c0.017-0.026 0.031-0.033 0.032-0.014s-0.012 0.047-0.027 0.064c-0.015 0.017-0.010 0.101 0.012 0.19 0.032 0.132 0.040 0.143 0.043 0.063 0.003-0.081 0.101-0.194 0.6-0.693 0.441-0.441 0.591-0.61 0.576-0.65-0.013-0.035-0.007-0.048 0.020-0.039 0.022 0.008 0.036 0.031 0.032 0.051s0.006 0.036 0.024 0.036c0.068 0 0.028-0.096-0.049-0.115-0.069-0.017-0.075-0.028-0.040-0.070 0.033-0.040 0.033-0.052 0.001-0.063-0.022-0.007-0.032-0.027-0.022-0.043s-0.007-0.039-0.037-0.051c-0.051-0.020-0.051-0.023 0.006-0.046 0.051-0.020 0.053-0.024 0.008-0.026-0.037-0.002-0.050-0.023-0.042-0.067 0.007-0.036-0.001-0.056-0.018-0.046s-0.030-0.002-0.030-0.026c0-0.057-0.090-0.239-0.131-0.264-0.017-0.010-0.023-0.031-0.014-0.045s-0.006-0.035-0.034-0.046c-0.027-0.011-0.042-0.032-0.032-0.048s-0.006-0.038-0.035-0.049c-0.029-0.011-0.045-0.028-0.036-0.037s-0.032-0.067-0.092-0.129c-0.060-0.062-0.1-0.126-0.090-0.143s-0.011-0.030-0.047-0.030c-0.058 0-0.069-0.014-0.065-0.081 0.002-0.023-0.088-0.111-0.113-0.111-0.011 0-0.057-0.043-0.101-0.096s-0.095-0.096-0.112-0.096c-0.017 0-0.067-0.043-0.111-0.095s-0.090-0.092-0.102-0.088c-0.012 0.004-0.057-0.025-0.1-0.065s-0.096-0.072-0.119-0.072c-0.023 0-0.042-0.011-0.042-0.024-0-0.029-0.155-0.104-0.214-0.104-0.023 0-0.042-0.014-0.042-0.032s-0.029-0.032-0.064-0.032c-0.035 0-0.064-0.014-0.064-0.032s-0.029-0.032-0.064-0.032c-0.035 0-0.064-0.011-0.064-0.025s-0.040-0.028-0.088-0.032c-0.048-0.004-0.093-0.022-0.099-0.039s-0.046-0.032-0.090-0.032-0.104-0.013-0.133-0.028c-0.13-0.069-0.559-0.078-3.718-0.084-1.839-0.003-3.132 0.004-2.872 0.016zM21.336 18.039c0.040 0.008 0.104 0.008 0.144 0s0.007-0.014-0.072-0.014-0.112 0.006-0.072 0.014zM1.895 19.232c-0.022 0.035-0.032 0.064-0.021 0.064 0.024 0 0.11-0.086 0.11-0.11 0-0.041-0.051-0.014-0.089 0.046zM3.523 19.767c-0.001 0.021-0.038 0.058-0.081 0.080-0.051 0.026-0.070 0.056-0.054 0.081 0.033 0.053 0.179-0.097 0.155-0.158-0.012-0.030-0.018-0.031-0.019-0.003zM3.236 20.020c-0.023 0.051-0.051 0.071-0.076 0.055-0.024-0.015-0.022-0.002 0.006 0.033 0.044 0.054 0.048 0.054 0.071-0.010 0.014-0.037 0.047-0.067 0.074-0.067 0.061 0 0.064-0.051 0.005-0.074-0.026-0.010-0.059 0.016-0.080 0.062zM3.101 20.144c-0.002 0.018-0.003 0.043-0 0.056 0.004 0.025-0.045 0.036-0.116 0.026-0.053-0.007-0.050 0.024 0.008 0.082 0.040 0.040 0.048 0.041 0.048 0.003 0-0.025 0.028-0.058 0.063-0.074 0.047-0.021 0.055-0.041 0.032-0.077-0.017-0.026-0.033-0.034-0.035-0.016zM2.835 20.444c-0.010 0.016 0.004 0.047 0.030 0.068 0.039 0.032 0.048 0.030 0.048-0.010 0-0.060-0.052-0.099-0.077-0.058zM2.755 20.542c-0.023 0.014-0.029 0.034-0.013 0.044s0.048 0.006 0.071-0.008c0.023-0.014 0.029-0.034 0.013-0.044s-0.048-0.006-0.071 0.008zM2.676 20.654c0.008 0.021 0.036 0.039 0.062 0.039 0.068 0 0.057-0.043-0.015-0.062-0.040-0.010-0.056-0.002-0.047 0.023zM1.888 21.457l-0.752 0.752-0.020-0.105c-0.018-0.097-0.020-0.094-0.024 0.039-0.004 0.106-0.013 0.131-0.036 0.096-0.020-0.031-0.031 0.975-0.032 2.872-0 1.926 0.010 2.92 0.032 2.92 0.018 0 0.032 0.032 0.032 0.071 0 0.11 0.076 0.409 0.103 0.409 0.014 0 0.025 0.043 0.025 0.096s0.014 0.096 0.032 0.096c0.018 0 0.032 0.022 0.032 0.048s0.013 0.073 0.028 0.104c0.016 0.031 0.061 0.124 0.101 0.208s0.085 0.152 0.1 0.152c0.015 0 0.027 0.022 0.027 0.048s0.043 0.093 0.096 0.149c0.053 0.055 0.096 0.117 0.096 0.137s0.029 0.057 0.064 0.082c0.035 0.025 0.064 0.058 0.064 0.073 0 0.035 0.298 0.329 0.325 0.32 0.012-0.004 0.040 0.017 0.064 0.046 0.036 0.045 0.036 0.049-0.002 0.026-0.030-0.018-0.038-0.015-0.022 0.010 0.013 0.020 0.044 0.037 0.069 0.037s0.046 0.013 0.046 0.028c0 0.016 0.051 0.053 0.114 0.082s0.122 0.075 0.131 0.1c0.010 0.025 0.046 0.046 0.080 0.046s0.054 0.014 0.043 0.032 0.003 0.032 0.030 0.032c0.027 0 0.050 0.011 0.050 0.024 0 0.029 0.155 0.104 0.214 0.104 0.023 0 0.042 0.014 0.042 0.032s0.029 0.032 0.064 0.032c0.035 0 0.064 0.016 0.064 0.036 0 0.022 0.034 0.029 0.088 0.019 0.057-0.011 0.11 0.002 0.15 0.036 0.034 0.029 0.052 0.037 0.040 0.017s-0.002-0.044 0.022-0.053c0.031-0.012 0.039 0.006 0.028 0.061-0.012 0.062-0.001 0.077 0.053 0.077 0.043 0 0.068-0.020 0.068-0.056 0-0.031 0.266-0.322 0.592-0.648 0.676-0.675 0.646-0.629 0.416-0.657-0.097-0.012-0.176-0.035-0.176-0.050s-0.015-0.028-0.034-0.028c-0.019 0-0.024 0.018-0.011 0.040 0.018 0.032 0.014 0.032-0.020 0-0.024-0.022-0.106-0.040-0.183-0.040-0.085 0-0.132-0.013-0.12-0.032s-0.026-0.032-0.092-0.032c-0.062 0-0.121-0.014-0.132-0.032s-0.045-0.032-0.075-0.032c-0.030 0-0.076-0.029-0.101-0.064s-0.072-0.064-0.103-0.064c-0.031 0-0.057-0.014-0.057-0.032s-0.022-0.032-0.049-0.032c-0.048 0-0.495-0.432-0.495-0.478 0-0.013-0.029-0.050-0.064-0.082s-0.064-0.084-0.064-0.117c0-0.032-0.014-0.059-0.032-0.059s-0.032-0.029-0.032-0.064c0-0.035-0.014-0.064-0.032-0.064s-0.032-0.029-0.032-0.064c0-0.035-0.014-0.064-0.032-0.064s-0.032-0.043-0.032-0.096c0-0.053-0.014-0.096-0.032-0.096s-0.032-0.079-0.032-0.176c0-0.099-0.014-0.176-0.033-0.176-0.039 0-0.023-6.116 0.016-6.32 0.014-0.070 0.041-0.139 0.061-0.153 0.025-0.017 0.019-0.038-0.020-0.068-0.070-0.054-0.073-0.088-0.004-0.062 0.044 0.017 0.046 0.009 0.016-0.047-0.045-0.084-0.049-0.174-0.005-0.104 0.038 0.060 0.063 0.034 0.037-0.039-0.016-0.044-0.181 0.105-0.772 0.697zM13.966 22.144c0 0.519 0.004 0.732 0.010 0.472s0.005-0.684 0-0.944c-0.005-0.26-0.010-0.047-0.010 0.472zM18.025 21.408c0 0.079 0.006 0.112 0.014 0.072s0.008-0.104 0-0.144c-0.008-0.040-0.014-0.007-0.014 0.072z"></path>
<path fill="#17c7e1" d="M3.968 1.056c0 0.018-0.064 0.032-0.142 0.032s-0.151 0.014-0.162 0.032c-0.011 0.018-0.054 0.032-0.096 0.032s-0.085 0.014-0.096 0.032c-0.011 0.018-0.055 0.032-0.098 0.032s-0.078 0.014-0.078 0.032c0 0.018-0.019 0.032-0.043 0.032s-0.085 0.020-0.136 0.044c-0.051 0.024-0.147 0.069-0.213 0.1s-0.12 0.068-0.12 0.084c0 0.016-0.029 0.028-0.064 0.028s-0.064 0.012-0.064 0.027c0 0.015-0.039 0.047-0.087 0.072-0.212 0.111-0.824 0.723-0.934 0.934-0.025 0.048-0.057 0.087-0.072 0.087s-0.027 0.026-0.027 0.057c0 0.031-0.029 0.078-0.064 0.103s-0.064 0.065-0.064 0.088c0 0.023-0.014 0.070-0.032 0.105s-0.046 0.092-0.064 0.127c-0.018 0.035-0.032 0.085-0.032 0.112s-0.014 0.048-0.032 0.048c-0.018 0-0.032 0.035-0.032 0.078s-0.014 0.087-0.032 0.098c-0.018 0.011-0.032 0.054-0.032 0.096s-0.014 0.085-0.032 0.096c-0.018 0.011-0.032 0.084-0.032 0.162s-0.014 0.142-0.032 0.142c-0.021 0-0.032 1.194-0.032 3.518 0 2.311 0.011 3.525 0.032 3.538 0.018 0.011 0.032 0.077 0.032 0.146s0.014 0.126 0.032 0.126c0.018 0 0.032 0.050 0.032 0.112s0.014 0.112 0.032 0.112c0.018 0 0.032 0.043 0.032 0.096s0.014 0.096 0.032 0.096c0.018 0 0.032 0.029 0.032 0.064s0.014 0.064 0.032 0.064c0.018 0 0.032 0.028 0.032 0.062s0.014 0.071 0.032 0.082c0.018 0.011 0.032 0.051 0.032 0.090 0 0.057 0.006 0.061 0.032 0.022 0.017-0.026 0.033-0.034 0.035-0.016 0.016 0.124 0.061 0.212 0.096 0.19 0.016-0.010 0.029-0.002 0.029 0.016s-0.018 0.034-0.040 0.035c-0.022 0.001 0 0.023 0.049 0.050s0.080 0.062 0.070 0.079c-0.010 0.017 0.007 0.031 0.039 0.031 0.041 0 0.046 0.008 0.018 0.026-0.030 0.019-0.019 0.044 0.040 0.095 0.044 0.038 0.080 0.059 0.080 0.046 0-0.058 0.967-1.003 1.010-0.987 0.124 0.048 0.105-0.099-0.033-0.249-0.077-0.083-0.119-0.144-0.095-0.135 0.046 0.018 0.043 0.007-0.046-0.164-0.020-0.039-0.037-0.1-0.037-0.134s-0.014-0.071-0.032-0.082c-0.018-0.011-0.032-0.090-0.032-0.176s-0.014-0.165-0.032-0.176c-0.044-0.027-0.044-6.085 0-6.112 0.018-0.011 0.032-0.083 0.032-0.16s0.014-0.149 0.032-0.16c0.018-0.011 0.032-0.062 0.032-0.114s0.014-0.094 0.032-0.094c0.018 0 0.032-0.029 0.032-0.064s0.014-0.064 0.032-0.064c0.018 0 0.032-0.029 0.032-0.064s0.014-0.064 0.032-0.064c0.018 0 0.032-0.022 0.032-0.049 0-0.053 0.022-0.082 0.323-0.407 0.11-0.119 0.216-0.216 0.235-0.216s0.057-0.029 0.082-0.064 0.072-0.064 0.103-0.064c0.031 0 0.057-0.014 0.057-0.032s0.029-0.032 0.064-0.032c0.035 0 0.064-0.014 0.064-0.032s0.029-0.032 0.064-0.032c0.035 0 0.064-0.014 0.064-0.032s0.043-0.032 0.096-0.032c0.053 0 0.096-0.014 0.096-0.032s0.071-0.032 0.158-0.032c0.087 0 0.167-0.014 0.178-0.032 0.013-0.021 1.083-0.032 3.106-0.032 2.036 0 3.086 0.011 3.086 0.032 0 0.018 0.057 0.032 0.126 0.032s0.135 0.014 0.146 0.032c0.011 0.018 0.054 0.032 0.096 0.032s0.085 0.014 0.096 0.032c0.011 0.018 0.055 0.032 0.098 0.032s0.078 0.011 0.078 0.024c0 0.013 0.036 0.041 0.080 0.061 0.060 0.028 0.080 0.028 0.080 0 0-0.020 0.029 0.011 0.065 0.069 0.039 0.064 0.079 0.097 0.102 0.082 0.025-0.016 0.018-0.032-0.025-0.050-0.044-0.019-0.029-0.023 0.050-0.013 0.062 0.008 0.094 0.007 0.072-0.002-0.076-0.032-0.038-0.080 0.426-0.533 0.256-0.25 0.47-0.484 0.476-0.519 0.014-0.087-0.046-0.163-0.082-0.105-0.020 0.031-0.026 0.027-0.027-0.014-0-0.031-0.021-0.056-0.046-0.056s-0.055-0.029-0.066-0.064c-0.011-0.035-0.033-0.057-0.048-0.048s-0.049-0.005-0.075-0.032-0.082-0.049-0.123-0.049c-0.060-0-0.065-0.007-0.026-0.032 0.041-0.027 0.040-0.031-0.007-0.032-0.030-0-0.106-0.029-0.169-0.064s-0.135-0.064-0.161-0.064c-0.026 0-0.047-0.011-0.047-0.025s-0.040-0.028-0.088-0.032c-0.048-0.004-0.093-0.022-0.099-0.039s-0.060-0.032-0.12-0.032c-0.060 0-0.109-0.014-0.109-0.032s-0.057-0.032-0.126-0.032c-0.069 0-0.135-0.014-0.146-0.032-0.013-0.021-1.227-0.032-3.538-0.032-2.324 0-3.518 0.011-3.518 0.032zM12.666 1.856c0.041 0.034 0.065 0.077 0.054 0.095s0.009 0.033 0.046 0.033c0.036 0 0.066-0.009 0.066-0.020 0-0.031-0.172-0.172-0.208-0.171-0.018 0.001 0.002 0.029 0.042 0.063zM13.961 4.256c0 0.079 0.006 0.112 0.014 0.072s0.008-0.104 0-0.144c-0.008-0.040-0.014-0.007-0.014 0.072zM1.856 12.722c0 0.037 0.092 0.11 0.108 0.085 0.009-0.014-0.012-0.043-0.046-0.064s-0.062-0.030-0.062-0.020zM4.184 13.975c0.040 0.008 0.104 0.008 0.144 0s0.007-0.014-0.072-0.014-0.112 0.006-0.072 0.014z"></path>
<path fill="#aa47f4" d="M28.995 3.368c0.022 0.048 0.052 0.088 0.066 0.088 0.043 0 0.032-0.030-0.040-0.105l-0.067-0.071 0.040 0.088zM30.704 3.38c0 0.042 0.013 0.072 0.029 0.066 0.044-0.015 0.050-0.112 0.008-0.128-0.021-0.008-0.037 0.018-0.037 0.062zM30.192 4.162c-0.299 0.3-0.583 0.57-0.632 0.599l-0.088 0.053v2.871c0 1.88-0.011 2.878-0.032 2.891-0.018 0.011-0.032 0.091-0.032 0.178s-0.014 0.158-0.032 0.158c-0.018 0-0.032 0.043-0.032 0.096s-0.014 0.096-0.032 0.096c-0.018 0-0.032 0.029-0.032 0.064s-0.014 0.064-0.032 0.064c-0.018 0-0.032 0.029-0.032 0.064s-0.011 0.064-0.024 0.064c-0.013 0-0.042 0.040-0.064 0.088s-0.091 0.146-0.154 0.216c-0.063 0.070-0.146 0.165-0.185 0.211s-0.106 0.102-0.15 0.125c-0.044 0.023-0.103 0.068-0.132 0.101s-0.075 0.059-0.104 0.059-0.052 0.014-0.052 0.032c0 0.018-0.029 0.032-0.064 0.032s-0.064 0.014-0.064 0.032c0 0.018-0.036 0.032-0.080 0.032s-0.080 0.014-0.080 0.032c0 0.018-0.043 0.032-0.096 0.032s-0.096 0.014-0.096 0.032c0 0.018-0.072 0.032-0.16 0.032s-0.16 0.014-0.16 0.031c0 0.019-1.030 0.034-2.766 0.040-2.16 0.007-2.775 0.018-2.806 0.049-0.022 0.022-0.078 0.040-0.124 0.040-0.066 0-0.205 0.122-0.654 0.574-0.314 0.316-0.605 0.582-0.647 0.593s-0.068 0.033-0.057 0.051 0.033 0.023 0.049 0.013c0.016-0.010 0.030-0.001 0.030 0.021s0.009 0.031 0.019 0.020c0.011-0.011 0.057-0.004 0.104 0.014 0.080 0.032 0.152 0.046 0.373 0.074 0.053 0.007 1.565 0.021 3.36 0.031 3.336 0.019 3.46 0.016 3.888-0.102 0.097-0.027 0.216-0.056 0.264-0.065s0.096-0.029 0.106-0.044c0.010-0.016 0.045-0.028 0.080-0.028s0.062-0.014 0.062-0.032c0-0.018 0.029-0.032 0.064-0.032s0.064-0.011 0.064-0.024c0-0.029 0.155-0.104 0.214-0.104 0.023 0 0.042-0.014 0.042-0.032s0.019-0.032 0.042-0.032c0.023 0 0.073-0.029 0.111-0.064s0.078-0.064 0.088-0.064c0.011 0 0.038-0.018 0.060-0.040s0.089-0.076 0.149-0.12c0.136-0.101 0.478-0.451 0.478-0.489 0-0.016 0.043-0.069 0.096-0.119s0.096-0.106 0.096-0.125c0-0.019 0.014-0.035 0.032-0.035s0.032-0.022 0.032-0.048c0-0.026 0.014-0.048 0.032-0.048s0.032-0.022 0.032-0.048c0-0.026 0.014-0.048 0.032-0.048s0.032-0.029 0.032-0.064c0-0.035 0.011-0.064 0.024-0.064s0.042-0.043 0.064-0.096c0.022-0.053 0.058-0.139 0.080-0.192s0.051-0.096 0.064-0.096c0.013 0 0.024-0.043 0.024-0.096s0.014-0.096 0.032-0.096c0.018 0 0.032-0.050 0.032-0.11s0.014-0.119 0.032-0.13c0.018-0.011 0.032-0.077 0.032-0.146s0.014-0.126 0.032-0.126c0.052 0 0.044-6.87-0.008-6.891-0.030-0.012-0.028-0.017 0.004-0.019s0.034-0.014 0.011-0.043c-0.038-0.045-0.039-0.051-0.039-0.186 0-0.057-0.013-0.090-0.032-0.078-0.018 0.011-0.032 0.005-0.032-0.014s0.015-0.034 0.032-0.034c0.019 0 0.016-0.026-0.008-0.064-0.071-0.114-0.129-0.073-0.681 0.482zM21.056 18.052c-0.333 0.051-0.758 0.18-0.952 0.288-0.058 0.033-0.124 0.059-0.147 0.059s-0.072 0.029-0.11 0.064c-0.038 0.035-0.078 0.064-0.088 0.064-0.035 0-0.317 0.204-0.418 0.303-0.055 0.053-0.132 0.119-0.172 0.145-0.093 0.061-0.256 0.232-0.256 0.267-0 0.015-0.041 0.065-0.090 0.112s-0.138 0.157-0.198 0.245-0.116 0.167-0.126 0.176c-0.038 0.033-0.098 0.161-0.098 0.208 0 0.027-0.014 0.048-0.032 0.048s-0.032 0.026-0.032 0.058c0 0.032-0.013 0.071-0.028 0.088-0.064 0.068-0.208 0.57-0.257 0.894-0.040 0.264-0.042 6.571-0.002 6.816 0.017 0.106 0.039 0.235 0.049 0.288 0.028 0.152 0.188 0.639 0.215 0.651 0.013 0.006 0.024 0.038 0.024 0.072s0.022 0.061 0.050 0.061c0.027 0 0.041 0.014 0.030 0.032-0.105 0.17 0.193-0.066 0.618-0.488 0.287-0.286 0.52-0.506 0.517-0.488-0.012 0.068 0.003 0.154 0.023 0.133 0.012-0.012 0.048 0.002 0.080 0.032 0.087 0.079 0.071 0.026-0.018-0.060-0.057-0.055-0.070-0.089-0.050-0.137 0.024-0.059 0.026-0.058 0.029 0.013 0.001 0.042 0.011 0.068 0.022 0.057 0.045-0.045-0.020-0.181-0.076-0.16-0.048 0.018-0.050 0.013-0.014-0.030 0.044-0.054 0.044-0.313 0-0.313-0.014 0-0.026-1.375-0.026-3.056 0-2.016 0.011-3.056 0.032-3.056 0.018 0 0.032-0.071 0.032-0.158s0.014-0.167 0.032-0.178c0.018-0.011 0.032-0.062 0.032-0.114s0.014-0.094 0.032-0.094c0.018 0 0.032-0.029 0.032-0.064s0.014-0.064 0.032-0.064c0.018 0 0.032-0.029 0.032-0.064s0.014-0.064 0.032-0.064c0.018 0 0.032-0.022 0.032-0.048s0.014-0.048 0.032-0.048c0.018 0 0.032-0.014 0.032-0.032 0-0.062 0.452-0.544 0.51-0.544 0.019 0 0.034-0.014 0.034-0.032s0.022-0.032 0.048-0.032c0.026 0 0.048-0.014 0.048-0.032s0.022-0.032 0.048-0.032c0.026 0 0.048-0.014 0.048-0.032s0.029-0.032 0.064-0.032c0.035 0 0.064-0.014 0.064-0.032s0.029-0.032 0.064-0.032c0.035 0 0.064-0.014 0.064-0.032s0.050-0.032 0.112-0.032c0.062 0 0.112-0.014 0.112-0.032s0.072-0.032 0.16-0.032c0.088 0 0.16-0.014 0.16-0.032 0-0.051 6.119-0.043 6.174 0.008 0.034 0.032 0.039 0.032 0.020 0-0.012-0.022-0.007-0.040 0.011-0.040s0.034 0.014 0.034 0.032c0 0.018 0.050 0.032 0.11 0.032s0.119 0.014 0.13 0.032c0.011 0.018 0.051 0.031 0.090 0.029 0.064-0.003 0.064-0.005-0.010-0.026-0.078-0.022-0.078-0.023-0.011-0.041 0.038-0.010 0.085-0.003 0.104 0.016s0.044 0.024 0.056 0.012c0.031-0.031-0.002-0.056-0.082-0.062-0.054-0.004 0.042-0.115 0.452-0.526 0.513-0.514 0.586-0.576 0.548-0.465-0.018 0.051-0.016 0.052 0.025 0.004 0.024-0.029 0.066-0.060 0.092-0.069 0.033-0.012 0.027-0.018-0.019-0.020-0.037-0.001-0.077-0.013-0.090-0.026s-0.041-0.025-0.061-0.027c-0.021-0.002-0.062-0.006-0.092-0.008s-0.063-0.034-0.074-0.069-0.047-0.064-0.080-0.064c-0.033 0-0.068-0.012-0.077-0.028-0.014-0.023-0.214-0.074-0.323-0.082-0.018-0.001-0.039-0.012-0.048-0.023s-0.066-0.029-0.128-0.039c-0.062-0.010-0.198-0.033-0.302-0.051-0.233-0.039-6.577-0.036-6.834 0.003zM13.728 20.4c-0.033 0.039-0.030 0.048 0.012 0.048 0.029 0 0.052-0.022 0.052-0.048s-0.005-0.048-0.012-0.048c-0.007 0-0.030 0.022-0.052 0.048zM13.748 20.528c0.015 0.039-0.135 0.209-0.576 0.65-0.499 0.499-0.597 0.612-0.6 0.693s-0.011 0.070-0.045-0.063c-0.034-0.134-0.042 0.321-0.044 2.792-0.002 1.945-0.014 2.952-0.035 2.952-0.018 0-0.032 0.072-0.032 0.16s-0.014 0.16-0.032 0.16c-0.018 0-0.032 0.043-0.032 0.096s-0.014 0.096-0.032 0.096c-0.018 0-0.032 0.036-0.032 0.080s-0.014 0.080-0.032 0.080c-0.018 0-0.032 0.029-0.032 0.064s-0.014 0.064-0.032 0.064c-0.018 0-0.032 0.024-0.032 0.052s-0.025 0.076-0.056 0.104c-0.031 0.028-0.091 0.102-0.133 0.164-0.092 0.136-0.393 0.399-0.519 0.455-0.050 0.022-0.092 0.051-0.092 0.065s-0.029 0.024-0.064 0.024-0.064 0.014-0.064 0.032c0 0.018-0.029 0.032-0.064 0.032s-0.064 0.014-0.064 0.032c0 0.018-0.043 0.032-0.096 0.032s-0.096 0.014-0.096 0.032c0 0.018-0.071 0.032-0.158 0.032s-0.167 0.014-0.178 0.032c-0.013 0.021-1.048 0.034-2.986 0.037-1.631 0.003-2.926 0.011-2.878 0.018 0.129 0.019 0.138 0.008-0.504 0.649-0.6 0.6-0.642 0.657-0.528 0.729 0.053 0.033 0.064 0.032 0.064-0.007 0-0.030 0.019-0.040 0.051-0.028 0.041 0.016 0.042 0.025 0.008 0.047-0.029 0.018-0.009 0.028 0.061 0.032 0.144 0.006 0.159 0.009 0.187 0.036 0.038 0.038 6.957 0.030 6.957-0.008 0-0.018 0.057-0.032 0.126-0.032s0.135-0.014 0.146-0.032c0.011-0.018 0.069-0.032 0.13-0.032s0.11-0.014 0.11-0.032c0-0.018 0.043-0.032 0.096-0.032s0.096-0.011 0.096-0.024c0-0.013 0.043-0.042 0.096-0.064s0.139-0.058 0.192-0.080c0.053-0.022 0.096-0.051 0.096-0.064s0.029-0.024 0.064-0.024 0.064-0.014 0.064-0.032c0-0.018 0.022-0.032 0.048-0.032s0.048-0.014 0.048-0.032c0-0.018 0.022-0.032 0.048-0.032s0.048-0.014 0.048-0.032c0-0.018 0.016-0.032 0.035-0.032s0.075-0.043 0.125-0.096 0.104-0.096 0.122-0.096c0.059 0 0.605-0.579 0.643-0.682 0.007-0.019 0.039-0.063 0.072-0.098s0.059-0.082 0.059-0.105c0-0.023 0.011-0.042 0.024-0.042 0.029-0 0.104-0.155 0.104-0.214 0-0.023 0.014-0.042 0.032-0.042s0.032-0.028 0.032-0.061c0-0.034 0.011-0.066 0.025-0.072 0.044-0.018 0.199-0.543 0.244-0.827 0.072-0.452 0.057-7.035-0.016-6.991-0.014 0.008-0.021-0.032-0.016-0.089s-0.010-0.149-0.033-0.204-0.032-0.109-0.021-0.12c0.011-0.011 0.003-0.020-0.017-0.020s-0.034-0.016-0.029-0.036-0.010-0.043-0.032-0.051c-0.026-0.010-0.033 0.004-0.020 0.039zM3.351 29.022c0.076 0.071 0.105 0.082 0.105 0.040 0-0.015-0.040-0.045-0.088-0.066l-0.088-0.040 0.071 0.067zM19.079 29.951c0.022 0.036 0.051 0.065 0.065 0.065 0.046 0 0.024-0.049-0.040-0.089-0.060-0.037-0.062-0.036-0.024 0.024zM3.304 30.728c0.007 0.022 0.041 0.040 0.075 0.040s0.070 0.012 0.081 0.027c0.011 0.015 0.027-0.003 0.037-0.039 0.015-0.056 0.008-0.061-0.042-0.035-0.039 0.021-0.066 0.021-0.079-0.001-0.029-0.046-0.088-0.040-0.072 0.008z"></path>
<path fill="#469de7" d="M21.040 1.057c0.009 0.014-0.060 0.033-0.152 0.042-0.267 0.027-0.408 0.058-0.408 0.088 0 0.016-0.028 0.028-0.063 0.028s-0.126 0.035-0.204 0.079c-0.078 0.043-0.15 0.070-0.161 0.059s-0.020-0.003-0.020 0.017c0 0.021-0.019 0.037-0.042 0.037-0.059 0-0.214 0.075-0.214 0.104-0 0.013-0.022 0.024-0.048 0.024s-0.048 0.014-0.048 0.032c0 0.018-0.022 0.032-0.048 0.032s-0.048 0.014-0.048 0.032c0 0.018-0.016 0.032-0.035 0.032s-0.075 0.043-0.125 0.096-0.105 0.096-0.124 0.096-0.050 0.029-0.068 0.064-0.047 0.064-0.063 0.064c-0.039 0-0.193 0.144-0.193 0.18 0 0.016-0.047 0.073-0.104 0.127-0.115 0.109-0.216 0.228-0.216 0.255 0 0.009-0.029 0.048-0.064 0.086s-0.064 0.088-0.064 0.111c0 0.023-0.014 0.042-0.032 0.042s-0.032 0.019-0.032 0.042c0 0.059-0.075 0.214-0.104 0.214-0.013 0-0.024 0.028-0.024 0.062s-0.011 0.066-0.025 0.072c-0.025 0.010-0.193 0.534-0.224 0.696-0.035 0.181-0.042 1.538-0.009 1.538 0.018 0 0.042-0.040 0.053-0.088s0.022-0.098 0.025-0.111c0.009-0.040 1.472-1.497 1.503-1.497 0.016 0 0.020-0.022 0.010-0.050-0.011-0.028-0.006-0.041 0.013-0.030s0.032 0.003 0.032-0.018c0-0.028 0.014-0.027 0.050 0.004 0.027 0.023 0.047 0.028 0.044 0.012s-0.002-0.040 0.002-0.053c0.004-0.013 0.010-0.035 0.013-0.048 0.028-0.12 0.062-0.17 0.104-0.154 0.033 0.012 0.044 0.001 0.037-0.038-0.015-0.075 0.066-0.165 0.136-0.152 0.031 0.006 0.090-0.026 0.131-0.072s0.058-0.073 0.038-0.061c-0.021 0.012-0.048 0.005-0.061-0.016-0.016-0.025-0.009-0.029 0.019-0.011 0.031 0.019 0.037 0.012 0.022-0.027-0.011-0.029-0.008-0.053 0.008-0.053s0.034 0.016 0.041 0.037c0.009 0.027 0.031 0.027 0.084-0.002 0.039-0.021 0.063-0.052 0.053-0.069s-0.003-0.030 0.017-0.030 0.027-0.014 0.016-0.032-0.005-0.032 0.014-0.032 0.034 0.015 0.034 0.034c0 0.019 0.015 0.025 0.033 0.014s0.025-0.033 0.015-0.048 0.008-0.043 0.040-0.061c0.031-0.018 0.048-0.033 0.038-0.034s0.34-0.357 0.778-0.793l0.796-0.792-0.106-0.020c-0.099-0.018-0.096-0.020 0.038-0.024 0.107-0.004 0.132-0.013 0.096-0.036-0.057-0.037-1.223-0.036-1.2 0.001zM12.591 1.822c0.017 0.028-0.129 0.193-0.459 0.517-0.483 0.475-0.52 0.521-0.444 0.552 0.022 0.009-0.003 0.012-0.056 0.007s-0.078-0.003-0.056 0.005 0.032 0.028 0.022 0.044c-0.010 0.016-0.004 0.030 0.012 0.030 0.049 0 0.229 0.17 0.229 0.217 0 0.024 0.012 0.035 0.027 0.026 0.030-0.018 0.16 0.118 0.173 0.181 0.004 0.022 0.033 0.058 0.064 0.081s0.056 0.070 0.056 0.104c0 0.034 0.014 0.062 0.032 0.062s0.032 0.029 0.032 0.064c0 0.035 0.014 0.064 0.032 0.064s0.032 0.029 0.032 0.064c0 0.035 0.014 0.064 0.032 0.064s0.032 0.042 0.032 0.094c0 0.052 0.014 0.103 0.032 0.114s0.032 0.091 0.032 0.178c0 0.087 0.014 0.158 0.032 0.158 0.021 0 0.032 1.034 0.032 3.038 0 1.991-0.011 3.045-0.032 3.058-0.048 0.030-0.038 0.080 0.016 0.080 0.027 0 0.048 0.029 0.048 0.067 0 0.046-0.015 0.062-0.046 0.050s-0.040-0.002-0.028 0.029c0.010 0.026-0 0.069-0.022 0.095-0.045 0.054-0.025 0.087 0.058 0.099 0.051 0.007 0.051 0.004-0.002-0.034-0.051-0.038-0.051-0.044-0.006-0.062 0.030-0.011 0.041-0.036 0.028-0.060-0.013-0.022-0.011-0.029 0.004-0.015s0.327-0.274 0.693-0.64c0.399-0.399 0.665-0.643 0.665-0.609 0 0.031 0.019 0.056 0.043 0.056 0.079 0 0.123-4.648 0.051-5.36-0.018-0.176-0.033-0.342-0.034-0.368s-0.013-0.084-0.027-0.128c-0.014-0.044-0.059-0.188-0.1-0.32s-0.082-0.247-0.092-0.256c-0.038-0.035-0.097-0.162-0.097-0.208 0-0.027-0.014-0.048-0.032-0.048s-0.032-0.029-0.032-0.064c0-0.035-0.014-0.064-0.032-0.064s-0.032-0.019-0.032-0.042c0-0.023-0.029-0.073-0.064-0.111s-0.064-0.084-0.064-0.102c0-0.018-0.012-0.033-0.027-0.033s-0.046-0.036-0.069-0.079c-0.023-0.043-0.053-0.072-0.067-0.064s-0.044-0.028-0.067-0.081c-0.024-0.054-0.067-0.096-0.099-0.096s-0.056-0.023-0.056-0.050c0-0.075-0.081-0.142-0.173-0.142-0.051 0-0.076-0.015-0.067-0.040 0.008-0.022-0.024-0.068-0.070-0.101s-0.073-0.043-0.059-0.021zM20.949 2.609c0.022 0.058 0.082 0.046 0.099-0.019 0.010-0.037 0.006-0.037-0.021 0.002-0.023 0.033-0.034 0.035-0.034 0.008-0-0.022-0.014-0.040-0.031-0.040s-0.022 0.022-0.012 0.049zM20.792 2.613c0.022 0.009 0.040 0.029 0.040 0.044s-0.024 0.019-0.053 0.008c-0.036-0.014-0.046-0.008-0.030 0.017 0.031 0.050 0.099 0.047 0.144-0.007 0.038-0.045-0.016-0.087-0.104-0.081-0.026 0.002-0.025 0.008 0.003 0.019zM2.935 11.625c-0.012 0.031-0.041 0.046-0.068 0.036-0.051-0.020-1.012 0.931-1.012 1.001 0 0.021 0.025 0.057 0.056 0.080s0.060 0.061 0.065 0.084c0.011 0.052 0.128 0.18 0.169 0.186 0.017 0.002 0.045 0.006 0.064 0.008s0.026 0.016 0.017 0.031c-0.009 0.015 0.018 0.046 0.061 0.069s0.072 0.052 0.064 0.064c-0.008 0.012 0.022 0.041 0.065 0.065s0.079 0.054 0.079 0.069c0 0.015 0.015 0.027 0.033 0.027s0.064 0.029 0.102 0.064c0.038 0.035 0.088 0.064 0.111 0.064s0.042 0.014 0.042 0.032 0.029 0.032 0.064 0.032c0.035 0 0.064 0.014 0.064 0.032s0.029 0.032 0.064 0.032c0.035 0 0.064 0.014 0.064 0.032s0.029 0.032 0.064 0.032c0.035 0 0.064 0.011 0.064 0.024s0.112 0.058 0.248 0.099c0.136 0.041 0.284 0.087 0.328 0.101s0.102 0.027 0.128 0.028 0.192 0.016 0.368 0.033c0.656 0.063 5.137 0.016 5.16-0.054 0.007-0.022 0.030-0.040 0.051-0.040 0.056 0 1.371-1.327 1.343-1.355-0.013-0.013 0.001-0.015 0.031-0.003 0.034 0.013 0.055 0.006 0.055-0.018 0-0.029 0.011-0.030 0.043-0.004s0.043 0.024 0.043-0.011c0-0.025-0.012-0.039-0.027-0.030s-0.027-0.010-0.027-0.041c-0-0.046-0.006-0.049-0.029-0.013-0.018 0.028-0.085 0.045-0.176 0.045-0.082 0-0.156 0.012-0.165 0.027-0.025 0.040-6.093 0.036-6.093-0.005 0-0.018-0.071-0.032-0.158-0.032s-0.167-0.014-0.178-0.032c-0.011-0.018-0.055-0.032-0.098-0.032s-0.111-0.017-0.15-0.037c-0.126-0.065-0.197-0.102-0.29-0.148-0.050-0.025-0.098-0.066-0.107-0.090s-0.028-0.038-0.041-0.030c-0.013 0.008-0.078-0.035-0.145-0.096s-0.134-0.111-0.151-0.111c-0.016 0-0.022-0.013-0.012-0.029s-0.016-0.056-0.057-0.089c-0.041-0.032-0.082-0.080-0.090-0.105-0.012-0.037-0.019-0.035-0.036 0.008zM4.028 18.062c-0.008 0.008-0.064 0.021-0.125 0.028-0.17 0.021-0.543 0.128-0.543 0.156 0 0.014-0.043 0.025-0.096 0.025s-0.096 0.014-0.096 0.032c0 0.018-0.029 0.032-0.064 0.032s-0.064 0.014-0.064 0.032c0 0.018-0.029 0.032-0.064 0.032s-0.064 0.014-0.064 0.032c0 0.018-0.029 0.032-0.064 0.032s-0.064 0.014-0.064 0.032c0 0.018-0.019 0.032-0.042 0.032s-0.073 0.029-0.111 0.064-0.085 0.064-0.104 0.064c-0.019 0-0.026 0.014-0.015 0.032s-0.001 0.032-0.026 0.032c-0.025 0-0.105 0.058-0.178 0.128s-0.141 0.128-0.152 0.128c-0.032 0-0.172 0.16-0.172 0.196 0 0.018-0.072 0.103-0.16 0.188s-0.16 0.171-0.16 0.19c0 0.019-0.014 0.034-0.032 0.034s-0.032 0.030-0.032 0.066c0 0.036-0.014 0.057-0.032 0.046s-0.032 0.012-0.032 0.051c0 0.039-0.009 0.062-0.021 0.050-0.026-0.026-0.107 0.126-0.107 0.199 0 0.030-0.013 0.068-0.029 0.084-0.059 0.062-0.163 0.274-0.163 0.333 0 0.033-0.014 0.065-0.031 0.071s-0.034 0.065-0.039 0.131c-0.004 0.066-0.019 0.12-0.033 0.12s-0.025 0.057-0.025 0.126c0 0.069-0.012 0.134-0.028 0.143-0.039 0.024-0.043 1.175-0.004 1.235 0.023 0.035 0.033 0.010 0.037-0.096 0.005-0.127 0.007-0.131 0.019-0.035l0.013 0.109 0.761-0.76c0.644-0.644 0.764-0.75 0.779-0.693 0.010 0.037 0.005 0.067-0.011 0.067s-0.029-0.017-0.029-0.037c0-0.020-0.008-0.029-0.019-0.018s-0.009 0.050 0.003 0.087c0.024 0.075 0.112 0.035 0.112-0.051 0-0.024 0.016-0.044 0.035-0.044s0.028-0.018 0.020-0.040c-0.008-0.022-0.029-0.037-0.048-0.033s-0.040-0.011-0.049-0.034c-0.011-0.029 0.011-0.037 0.077-0.027 0.059 0.009 0.093-0.001 0.093-0.025 0-0.022-0.021-0.031-0.047-0.021s-0.056 0.004-0.066-0.013c-0.019-0.031 0.026-0.044 0.111-0.032 0.037 0.005 0.038-0.003 0.008-0.039-0.044-0.053-0.020-0.091 0.042-0.067s0.132-0.116 0.076-0.151c-0.023-0.014-0.032-0.036-0.020-0.048s0.047-0.002 0.077 0.022c0.036 0.030 0.047 0.031 0.031 0.005-0.014-0.022-0.008-0.040 0.012-0.040s0.028-0.013 0.017-0.030c-0.010-0.016-0.004-0.039 0.014-0.050s0.033-0.004 0.033 0.016 0.015 0.026 0.034 0.015c0.023-0.014 0.022-0.034-0.003-0.065-0.029-0.035-0.023-0.041 0.031-0.031 0.037 0.007 0.060 0.001 0.051-0.014-0.035-0.057 0.019-0.122 0.087-0.105 0.053 0.014 0.063 0.006 0.047-0.036-0.011-0.029-0.006-0.053 0.011-0.053s0.060-0.029 0.095-0.064c0.050-0.050 0.064-0.053 0.064-0.016 0 0.026 0.012 0.048 0.027 0.048 0.052 0 0.065-0.040 0.037-0.113-0.024-0.064-0.019-0.073 0.034-0.063 0.034 0.007 0.062 0.001 0.062-0.012s0.331-0.354 0.736-0.758c0.591-0.589 0.725-0.738 0.68-0.756s-0.041-0.023 0.024-0.028c0.059-0.004 0.046-0.013-0.048-0.032-0.134-0.028-1.051-0.041-1.076-0.016zM3.736 19.679c-0.034 0.040-0.042 0.070-0.021 0.083 0.040 0.025 0.047 0.018 0.075-0.074 0.027-0.088 0.016-0.090-0.054-0.009zM2.56 20.961c0 0.017 0.018 0.031 0.040 0.031 0.027 0 0.025 0.011-0.008 0.034-0.039 0.028-0.039 0.032-0.002 0.021 0.066-0.018 0.077-0.077 0.019-0.099-0.027-0.010-0.049-0.005-0.049 0.012z"></path>
</svg>
